<svg version="1.2" xmlns="http://www.w3.org/2000/svg" viewBox="0 0 2000 2000" width="2000" height="2000">
	<style>
		.s0 { fill: #ffffff } 
		.s1 { fill: #1fc2c2 } 
	</style>
	<g id="Layer 1">
		<g id="&lt;Group&gt;">
			<path id="&lt;Compound Path&gt;" class="s0" d="m508.73 872.95c-14.98 0-27.12 12.13-27.12 27.13v128.83l-106-139.19c-7.49-9.64-15.35-16.07-28.56-16.07h-5.7c-15.35 0-27.48 12.14-27.48 27.5v198.78c0 15 12.13 27.13 27.12 27.13 14.99 0 27.13-12.13 27.13-27.13v-133.83l109.92 144.19c7.5 9.64 15.34 16.05 28.55 16.05h1.79c15.34 0 27.48-12.13 27.48-27.48v-198.78c0-15-12.14-27.13-27.13-27.13z"/>
			<path id="&lt;Path&gt;" class="s0" d="m930.22 1089.58l-87.08-196.65c-6.07-13.56-16.77-21.77-31.76-21.77h-3.22c-14.99 0-26.05 8.21-32.12 21.77l-87.08 196.65c-1.78 3.93-3.21 7.86-3.21 11.78 0 14.28 11.06 25.7 25.34 25.7 11.42 0 20.7-6.43 25.34-17.13l17.48-41.05 54.97-130.98 34.62 82.44 20.34 48.54 16.77 39.26c5 11.42 13.57 18.92 26.42 18.92 14.63 0 26.05-11.78 26.05-26.41 0-3.57-1.07-7.14-2.86-11.07z"/>
			<path id="&lt;Compound Path&gt;" class="s0" d="m1278.2 872.95c-15 0-27.13 12.13-27.13 27.13v128.83l-106-139.19c-7.49-9.64-15.34-16.07-28.54-16.07h-5.72c-15.35 0-27.48 12.14-27.48 27.5v198.78c0 15 12.13 27.13 27.12 27.13 14.99 0 27.13-12.13 27.13-27.13v-133.83l109.92 144.19c7.5 9.64 15.34 16.05 28.56 16.05h1.78c15.34 0 27.48-12.13 27.48-27.48v-198.78c0-15-12.14-27.13-27.12-27.13z"/>
			<path id="&lt;Compound Path&gt;" class="s0" d="m1658.64 872.95c-15.34 0-27.48 12.13-27.48 27.47v117.79c0 39.61-20.34 59.95-53.89 59.95-33.55 0-53.9-21.05-53.9-61.74v-116c0-15.34-12.13-27.47-27.47-27.47-15.35 0-27.48 12.13-27.48 27.47v117.43c0 73.52 41.04 110.99 108.13 110.99 67.11 0 109.58-37.11 109.58-112.79v-115.63c0-15.34-12.13-27.47-27.49-27.47z"/>
			<path id="&lt;Path&gt;" class="s1" d="m834.31 1047.44c0 13.74-11.15 24.89-24.9 24.89-13.74 0-24.89-11.15-24.89-24.89 0-13.75 11.15-24.89 24.89-24.89 13.75 0 24.9 11.14 24.9 24.89z"/>
		</g>
	</g>
</svg>